# xmcd
# 
# Track frame offsets:
#     150
#     21577
#     38525
#     54455
#     73860
#     89657
#     108999
#     126085
#     144303
#     161488
#     178675
#     196378
#     208400
#     230262
#     270951
# 
# Disc length: 4440
# 
# Revision: 5
# Processed by: cddbd v1.5.2PL0 Copyright (c) Steve Scherf et al.
# Submitted via: BonkEnc v1.0.8
# 
DISCID=d611560f
DTITLE=Marina Lima - Acústico MTV
DYEAR=2003
DGENRE=MPB
TTITLE0=Virgem
TTITLE1=O Chamado
TTITLE2=Pra Comecar
TTITLE3=A Não Ser Você
TTITLE4=Pessoa
TTITLE5=Charme Do Mundo
TTITLE6=Grávida
TTITLE7=Na Minha Mão
TTITLE8=Ainda É Cedo
TTITLE9=Sugar
TTITLE10=Fullgás
TTITLE11=Prestes A Voar
TTITLE12=Tom Maior - Arco De Luz
TTITLE13=À Francesa - Uma Noite E 1/2
TTITLE14=Fuck EMI
EXTD=
EXTT0=
EXTT1=
EXTT2=
EXTT3=
EXTT4=
EXTT5=
EXTT6=
EXTT7=
EXTT8=
EXTT9=
EXTT10=
EXTT11=
EXTT12=
EXTT13=
EXTT14=
PLAYORDER=
